<svg data-v-423bf9ae="" xmlns="http://www.w3.org/2000/svg" viewBox="0 0 443.0877793729651 185" class="iconAbove"><!----><!----><!----><g data-v-423bf9ae="" id="a9ce61fa-e44f-47d3-97a8-3dc6e18f8f25" fill="#321E0F" transform="matrix(4.702194624460447,0,0,4.702194624460447,-4.2319822294329015,104.73805745167333)"><path d="M7.12 11.36L7.12 11.36L8.31 11.54L8.31 11.54Q8.28 12.20 8.20 12.66L8.20 12.66L8.20 12.66Q8.11 13.12 7.95 13.48L7.95 13.48L7.95 13.48Q7.79 13.84 7.56 14.06L7.56 14.06L7.56 14.06Q7.33 14.29 6.96 14.43L6.96 14.43L6.96 14.43Q6.60 14.57 6.14 14.63L6.14 14.63L6.14 14.63Q5.69 14.68 5.04 14.68L5.04 14.68L5.04 14.68Q4.43 14.68 3.94 14.65L3.94 14.65L3.94 14.65Q3.46 14.62 3.06 14.52L3.06 14.52L3.06 14.52Q2.66 14.41 2.36 14.31L2.36 14.31L2.36 14.31Q2.06 14.21 1.84 13.98L1.84 13.98L1.84 13.98Q1.61 13.75 1.45 13.56L1.45 13.56L1.45 13.56Q1.30 13.38 1.19 13.00L1.19 13.00L1.19 13.00Q1.09 12.62 1.03 12.33L1.03 12.33L1.03 12.33Q0.98 12.04 0.95 11.50L0.95 11.50L0.95 11.50Q0.92 10.95 0.91 10.54L0.91 10.54L0.91 10.54Q0.90 10.13 0.90 9.41L0.90 9.41L0.90 9.41Q0.90 8.64 0.91 8.18L0.91 8.18L0.91 8.18Q0.92 7.71 0.95 7.16L0.95 7.16L0.95 7.16Q0.98 6.62 1.04 6.32L1.04 6.32L1.04 6.32Q1.09 6.02 1.20 5.66L1.20 5.66L1.20 5.66Q1.31 5.30 1.46 5.12L1.46 5.12L1.46 5.12Q1.60 4.95 1.83 4.74L1.83 4.74L1.83 4.74Q2.06 4.54 2.34 4.46L2.34 4.46L2.34 4.46Q2.62 4.38 3.01 4.30L3.01 4.30L3.01 4.30Q3.41 4.22 3.87 4.20L3.87 4.20L3.87 4.20Q4.32 4.18 4.92 4.18L4.92 4.18L4.92 4.18Q5.54 4.18 5.98 4.22L5.98 4.22L5.98 4.22Q6.42 4.27 6.80 4.39L6.80 4.39L6.80 4.39Q7.18 4.52 7.43 4.73L7.43 4.73L7.43 4.73Q7.68 4.94 7.86 5.27L7.86 5.27L7.86 5.27Q8.05 5.61 8.16 6.06L8.16 6.06L8.16 6.06Q8.26 6.51 8.31 7.15L8.31 7.15L7.11 7.38L7.11 7.38Q7.08 7.03 7.05 6.80L7.05 6.80L7.05 6.80Q7.02 6.57 6.97 6.34L6.97 6.34L6.97 6.34Q6.92 6.12 6.89 5.98L6.89 5.98L6.89 5.98Q6.86 5.84 6.76 5.70L6.76 5.70L6.76 5.70Q6.67 5.57 6.61 5.50L6.61 5.50L6.61 5.50Q6.55 5.43 6.39 5.37L6.39 5.37L6.39 5.37Q6.23 5.31 6.13 5.29L6.13 5.29L6.13 5.29Q6.02 5.26 5.78 5.24L5.78 5.24L5.78 5.24Q5.54 5.22 5.36 5.22L5.36 5.22L5.36 5.22Q5.18 5.22 4.84 5.22L4.84 5.22L4.84 5.22Q4.36 5.22 4.06 5.23L4.06 5.23L4.06 5.23Q3.75 5.24 3.45 5.28L3.45 5.28L3.45 5.28Q3.14 5.32 2.97 5.39L2.97 5.39L2.97 5.39Q2.80 5.46 2.65 5.58L2.65 5.58L2.65 5.58Q2.50 5.70 2.43 5.88L2.43 5.88L2.43 5.88Q2.37 6.05 2.35 6.30L2.35 6.30L2.35 6.30Q2.29 8.10 2.29 9.98L2.29 9.98L2.29 9.98Q2.29 11.29 2.35 12.54L2.35 12.54L2.35 12.54Q2.39 12.93 2.57 13.15L2.57 13.15L2.57 13.15Q2.76 13.37 3.31 13.50L3.31 13.50L3.31 13.50Q3.85 13.63 4.85 13.63L4.85 13.63L4.85 13.63Q5.38 13.63 5.74 13.60L5.74 13.60L5.74 13.60Q6.10 13.57 6.35 13.46L6.35 13.46L6.35 13.46Q6.60 13.34 6.73 13.25L6.73 13.25L6.73 13.25Q6.86 13.16 6.94 12.89L6.94 12.89L6.94 12.89Q7.01 12.63 7.04 12.44L7.04 12.44L7.04 12.44Q7.06 12.26 7.09 11.83L7.09 11.83L7.09 11.83Q7.10 11.73 7.10 11.68L7.10 11.68L7.10 11.68Q7.10 11.62 7.11 11.53L7.11 11.53L7.11 11.53Q7.12 11.44 7.12 11.36ZM16.08 10.22L16.08 14.52L14.74 14.52L14.74 9.97L14.74 9.97Q14.74 9.72 14.75 9.34L14.75 9.34L14.75 9.34Q14.76 8.97 14.76 8.85L14.76 8.85L14.76 8.85Q14.76 8.50 14.71 8.32L14.71 8.32L14.71 8.32Q14.66 8.13 14.47 7.99L14.47 7.99L14.47 7.99Q14.29 7.85 13.95 7.80L13.95 7.80L13.95 7.80Q13.62 7.75 13.04 7.75L13.04 7.75L13.04 7.75Q12.76 7.75 12.52 7.78L12.52 7.78L12.52 7.78Q12.28 7.81 12.06 7.89L12.06 7.89L12.06 7.89Q11.84 7.96 11.70 8.09L11.70 8.09L11.70 8.09Q11.57 8.22 11.55 8.39L11.55 8.39L11.55 8.39Q11.46 9.63 11.46 10.61L11.46 10.61L11.46 14.52L10.10 14.52L10.10 4.36L11.46 4.25L11.46 7.59L11.46 7.59Q11.95 6.81 13.49 6.81L13.49 6.81L13.49 6.81Q13.90 6.82 14.22 6.86L14.22 6.86L14.22 6.86Q14.55 6.90 14.80 6.97L14.80 6.97L14.80 6.97Q15.05 7.03 15.24 7.14L15.24 7.14L15.24 7.14Q15.44 7.25 15.57 7.36L15.57 7.36L15.57 7.36Q15.71 7.48 15.80 7.65L15.80 7.65L15.80 7.65Q15.90 7.83 15.96 7.99L15.96 7.99L15.96 7.99Q16.01 8.16 16.04 8.39L16.04 8.39L16.04 8.39Q16.07 8.63 16.08 8.84L16.08 8.84L16.08 8.84Q16.09 9.05 16.09 9.35L16.09 9.35L16.09 9.35Q16.09 9.48 16.09 9.77L16.09 9.77L16.09 9.77Q16.08 10.06 16.08 10.22L16.08 10.22ZM23.68 9.56L23.68 14.52L22.61 14.52L22.39 13.45L22.39 13.45Q22.19 14.15 21.65 14.39L21.65 14.39L21.65 14.39Q21.12 14.62 20.08 14.62L20.08 14.62L20.08 14.62Q19.40 14.62 18.96 14.49L18.96 14.49L18.96 14.49Q18.53 14.36 18.27 14.04L18.27 14.04L18.27 14.04Q18.01 13.73 17.91 13.27L17.91 13.27L17.91 13.27Q17.81 12.82 17.81 12.10L17.81 12.10L17.81 12.10Q17.81 11.78 17.92 11.53L17.92 11.53L17.92 11.53Q18.03 11.27 18.23 11.09L18.23 11.09L18.23 11.09Q18.42 10.92 18.75 10.79L18.75 10.79L18.75 10.79Q19.07 10.66 19.42 10.58L19.42 10.58L19.42 10.58Q19.77 10.51 20.27 10.46L20.27 10.46L20.27 10.46Q20.76 10.42 21.23 10.40L21.23 10.40L21.23 10.40Q21.70 10.39 22.33 10.39L22.33 10.39L22.33 8.36L22.33 8.36Q22.33 8.01 22.00 7.88L22.00 7.88L22.00 7.88Q21.68 7.75 20.84 7.75L20.84 7.75L20.84 7.75Q20.25 7.75 19.95 7.77L19.95 7.77L19.95 7.77Q19.66 7.80 19.51 7.93L19.51 7.93L19.51 7.93Q19.35 8.07 19.33 8.20L19.33 8.20L19.33 8.20Q19.30 8.33 19.30 8.68L19.30 8.68L19.30 8.68Q19.29 8.81 19.29 8.89L19.29 8.89L18.25 8.85L18.25 8.85Q18.23 8.74 18.23 8.52L18.23 8.52L18.23 8.52Q18.23 8.07 18.36 7.75L18.36 7.75L18.36 7.75Q18.50 7.43 18.71 7.25L18.71 7.25L18.71 7.25Q18.92 7.07 19.29 6.97L19.29 6.97L19.29 6.97Q19.66 6.86 20.02 6.84L20.02 6.84L20.02 6.84Q20.38 6.81 20.92 6.81L20.92 6.81L20.92 6.81Q21.75 6.81 22.26 6.94L22.26 6.94L22.26 6.94Q22.77 7.06 23.10 7.39L23.10 7.39L23.10 7.39Q23.43 7.72 23.55 8.23L23.55 8.23L23.55 8.23Q23.68 8.74 23.68 9.56L23.68 9.56ZM22.33 12.37L22.33 12.37L22.33 11.20L22.33 11.20Q20.99 11.20 20.26 11.31L20.26 11.31L20.26 11.31Q19.54 11.41 19.29 11.59L19.29 11.59L19.29 11.59Q19.05 11.77 19.05 12.10L19.05 12.10L19.05 12.10Q19.05 12.11 19.05 12.14L19.05 12.14L19.05 12.14Q19.05 13.18 19.22 13.43L19.22 13.43L19.22 13.43Q19.39 13.69 20.27 13.69L20.27 13.69L20.27 13.69Q21.01 13.69 21.48 13.51L21.48 13.51L21.48 13.51Q21.94 13.33 22.12 13.05L22.12 13.05L22.12 13.05Q22.31 12.78 22.33 12.37ZM29.10 6.85L29.10 6.85L29.05 7.99L29.05 7.99Q28.79 7.96 28.55 7.96L28.55 7.96L28.55 7.96Q28.07 7.96 27.77 8.05L27.77 8.05L27.77 8.05Q27.47 8.15 27.31 8.38L27.31 8.38L27.31 8.38Q27.16 8.61 27.11 8.91L27.11 8.91L27.11 8.91Q27.06 9.21 27.06 9.71L27.06 9.71L27.06 9.71Q27.06 9.99 27.08 10.53L27.08 10.53L27.08 10.53Q27.10 11.07 27.10 11.30L27.10 11.30L27.10 14.52L25.76 14.52L25.76 7.02L26.98 7.02L27.12 7.86L27.12 7.86Q27.33 7.37 27.76 7.10L27.76 7.10L27.76 7.10Q28.19 6.83 28.79 6.83L28.79 6.83L28.79 6.83Q28.94 6.83 29.10 6.85ZM32.07 7.02L32.07 14.52L30.73 14.52L30.73 7.02L32.07 7.02ZM30.73 4.12L32.07 4.12L32.07 5.30L30.73 5.30L30.73 4.12ZM37.20 13.57L37.20 13.57L37.17 14.53L37.17 14.53Q36.60 14.62 36.13 14.62L36.13 14.62L36.13 14.62Q35.64 14.62 35.31 14.51L35.31 14.51L35.31 14.51Q34.99 14.40 34.82 14.16L34.82 14.16L34.82 14.16Q34.66 13.92 34.60 13.63L34.60 13.63L34.60 13.63Q34.54 13.34 34.54 12.89L34.54 12.89L34.54 7.79L33.52 7.79L33.52 7.02L34.54 7.02L34.54 4.89L35.88 4.78L35.88 7.02L37.26 7.02L37.26 7.79L35.88 7.79L35.88 12.43L35.88 12.43Q35.88 13.17 35.95 13.39L35.95 13.39L35.95 13.39Q36.02 13.61 36.34 13.61L36.34 13.61L36.34 13.61Q36.65 13.61 37.20 13.57ZM43.37 7.02L44.74 7.02L42.38 14.16L42.38 14.16Q42.29 14.42 42.19 14.78L42.19 14.78L42.19 14.78Q42.09 15.15 42.02 15.37L42.02 15.37L42.02 15.37Q41.96 15.60 41.86 15.87L41.86 15.87L41.86 15.87Q41.76 16.14 41.64 16.30L41.64 16.30L41.64 16.30Q41.53 16.46 41.36 16.61L41.36 16.61L41.36 16.61Q41.19 16.75 40.95 16.82L40.95 16.82L40.95 16.82Q40.71 16.88 40.39 16.88L40.39 16.88L40.39 16.88Q39.58 16.88 38.92 16.73L38.92 16.73L39.12 15.69L39.12 15.69Q39.25 15.70 39.47 15.74L39.47 15.74L39.47 15.74Q39.69 15.78 39.85 15.80L39.85 15.80L39.85 15.80Q40.01 15.82 40.15 15.82L40.15 15.82L40.15 15.82Q40.58 15.82 40.81 15.52L40.81 15.52L40.81 15.52Q41.04 15.22 41.04 14.40L41.04 14.40L38.23 7.02L39.59 7.02L40.97 10.83L40.97 10.83Q41.35 11.87 41.67 12.79L41.67 12.79L41.67 12.79Q41.90 11.96 42.33 10.51L42.33 10.51L43.37 7.02ZM53.03 4.33L56.08 14.52L54.67 14.52L53.89 11.92L50.13 11.92L49.38 14.52L48.05 14.52L51.17 4.33L53.03 4.33ZM50.42 10.93L53.61 10.93L52.75 7.88L52.04 5.37L52.04 5.37Q51.64 6.79 51.34 7.81L51.34 7.81L50.42 10.93ZM63.33 7.02L63.33 14.53L62.08 14.53L61.96 13.56L61.96 13.56Q61.78 14.10 61.19 14.36L61.19 14.36L61.19 14.36Q60.59 14.62 59.73 14.62L59.73 14.62L59.73 14.62Q59.14 14.62 58.73 14.51L58.73 14.51L58.73 14.51Q58.33 14.39 58.06 14.17L58.06 14.17L58.06 14.17Q57.79 13.95 57.64 13.55L57.64 13.55L57.64 13.55Q57.50 13.15 57.44 12.65L57.44 12.65L57.44 12.65Q57.38 12.15 57.38 11.42L57.38 11.42L57.38 7.02L58.73 7.02L58.73 11.38L58.73 11.38Q58.73 11.53 58.72 11.78L58.72 11.78L58.72 11.78Q58.72 12.04 58.72 12.14L58.72 12.14L58.72 12.14Q58.72 12.50 58.73 12.71L58.73 12.71L58.73 12.71Q58.75 12.91 58.81 13.11L58.81 13.11L58.81 13.11Q58.86 13.31 58.96 13.40L58.96 13.40L58.96 13.40Q59.06 13.49 59.25 13.57L59.25 13.57L59.25 13.57Q59.44 13.64 59.69 13.67L59.69 13.67L59.69 13.67Q59.94 13.69 60.33 13.69L60.33 13.69L60.33 13.69Q60.76 13.69 61.07 13.62L61.07 13.62L61.07 13.62Q61.38 13.56 61.56 13.46L61.56 13.46L61.56 13.46Q61.74 13.36 61.83 13.19L61.83 13.19L61.83 13.19Q61.92 13.02 61.95 12.86L61.95 12.86L61.95 12.86Q61.97 12.69 61.97 12.45L61.97 12.45L61.97 12.45Q61.97 12.37 61.97 12.18L61.97 12.18L61.97 12.18Q61.97 12.00 61.97 11.90L61.97 11.90L61.97 7.02L63.33 7.02ZM71.11 9.18L71.11 9.18L70 9.37L69.86 8.42L69.86 8.42Q69.80 8.09 69.73 8.00L69.73 8.00L69.73 8.00Q69.55 7.79 68.74 7.77L68.74 7.77L68.74 7.77Q68.55 7.76 68.32 7.76L68.32 7.76L68.32 7.76Q67.39 7.76 67.10 7.86L67.10 7.86L67.10 7.86Q66.79 7.92 66.64 8.48L66.64 8.48L66.64 8.48Q66.50 9.05 66.50 9.87L66.50 9.87L66.51 11.05L66.51 11.05Q66.51 11.30 66.51 11.73L66.51 11.73L66.51 11.73Q66.51 12.29 66.51 12.52L66.51 12.52L66.51 12.52Q66.51 12.75 66.57 13.04L66.57 13.04L66.57 13.04Q66.63 13.33 66.71 13.40L66.71 13.40L66.71 13.40Q66.79 13.47 67.01 13.57L67.01 13.57L67.01 13.57Q67.22 13.67 67.47 13.67L67.47 13.67L67.47 13.67Q67.72 13.68 68.20 13.68L68.20 13.68L68.20 13.68Q68.56 13.68 68.83 13.65L68.83 13.65L68.83 13.65Q69.10 13.62 69.29 13.59L69.29 13.59L69.29 13.59Q69.48 13.55 69.60 13.46L69.60 13.46L69.60 13.46Q69.72 13.36 69.78 13.29L69.78 13.29L69.78 13.29Q69.85 13.21 69.88 13.05L69.88 13.05L69.88 13.05Q69.92 12.89 69.93 12.78L69.93 12.78L69.93 12.78Q69.94 12.66 69.95 12.42L69.95 12.42L69.95 12.42Q69.97 12.19 69.99 12.02L69.99 12.02L71.11 12.22L71.11 12.22Q71.07 12.75 71.02 13.07L71.02 13.07L71.02 13.07Q70.96 13.39 70.84 13.69L70.84 13.69L70.84 13.69Q70.72 13.99 70.54 14.15L70.54 14.15L70.54 14.15Q70.36 14.30 70.04 14.42L70.04 14.42L70.04 14.42Q69.73 14.55 69.31 14.58L69.31 14.58L69.31 14.58Q68.89 14.62 68.26 14.62L68.26 14.62L68.26 14.62Q67.81 14.62 67.45 14.59L67.45 14.59L67.45 14.59Q67.09 14.57 66.79 14.48L66.79 14.48L66.79 14.48Q66.50 14.40 66.28 14.32L66.28 14.32L66.28 14.32Q66.06 14.24 65.90 14.04L65.90 14.04L65.90 14.04Q65.73 13.84 65.61 13.70L65.61 13.70L65.61 13.70Q65.50 13.56 65.43 13.23L65.43 13.23L65.43 13.23Q65.35 12.91 65.31 12.69L65.31 12.69L65.31 12.69Q65.27 12.46 65.25 12.00L65.25 12.00L65.25 12.00Q65.23 11.54 65.23 11.22L65.23 11.22L65.23 11.22Q65.22 10.90 65.22 10.29L65.22 10.29L65.22 10.29Q65.22 9.74 65.24 9.34L65.24 9.34L65.24 9.34Q65.26 8.94 65.32 8.58L65.32 8.58L65.32 8.58Q65.39 8.21 65.48 7.97L65.48 7.97L65.48 7.97Q65.58 7.72 65.75 7.51L65.75 7.51L65.75 7.51Q65.92 7.30 66.13 7.18L66.13 7.18L66.13 7.18Q66.35 7.05 66.67 6.97L66.67 6.97L66.67 6.97Q66.99 6.88 67.36 6.84L67.36 6.84L67.36 6.84Q67.74 6.81 68.25 6.81L68.25 6.81L68.25 6.81Q68.90 6.81 69.34 6.87L69.34 6.87L69.34 6.87Q69.78 6.94 70.12 7.09L70.12 7.09L70.12 7.09Q70.46 7.24 70.66 7.52L70.66 7.52L70.66 7.52Q70.86 7.79 70.97 8.19L70.97 8.19L70.97 8.19Q71.08 8.59 71.11 9.18ZM75.86 13.57L75.86 13.57L75.83 14.53L75.83 14.53Q75.26 14.62 74.79 14.62L74.79 14.62L74.79 14.62Q74.29 14.62 73.97 14.51L73.97 14.51L73.97 14.51Q73.64 14.40 73.48 14.16L73.48 14.16L73.48 14.16Q73.32 13.92 73.25 13.63L73.25 13.63L73.25 13.63Q73.19 13.34 73.19 12.89L73.19 12.89L73.19 7.79L72.17 7.79L72.17 7.02L73.19 7.02L73.19 4.89L74.53 4.78L74.53 7.02L75.91 7.02L75.91 7.79L74.53 7.79L74.53 12.43L74.53 12.43Q74.53 13.17 74.60 13.39L74.60 13.39L74.60 13.39Q74.68 13.61 75.00 13.61L75.00 13.61L75.00 13.61Q75.31 13.61 75.86 13.57ZM79.02 7.02L79.02 14.52L77.68 14.52L77.68 7.02L79.02 7.02ZM77.68 4.12L79.02 4.12L79.02 5.30L77.68 5.30L77.68 4.12ZM84.15 13.68L84.15 13.68L84.15 13.68Q85.12 13.66 85.50 13.54L85.50 13.54L85.50 13.54Q85.88 13.41 85.88 13.05L85.88 13.05L85.88 13.05Q85.96 12.07 85.96 10.79L85.96 10.79L85.96 10.79Q85.96 10.36 85.92 9.57L85.92 9.57L85.92 9.57Q85.89 8.78 85.89 8.40L85.89 8.40L85.89 8.40Q85.89 8.29 85.85 8.19L85.85 8.19L85.85 8.19Q85.81 8.09 85.73 8.03L85.73 8.03L85.73 8.03Q85.64 7.96 85.56 7.92L85.56 7.92L85.56 7.92Q85.47 7.87 85.32 7.84L85.32 7.84L85.32 7.84Q85.16 7.81 85.06 7.79L85.06 7.79L85.06 7.79Q84.95 7.77 84.76 7.77L84.76 7.77L84.76 7.77Q84.56 7.76 84.45 7.76L84.45 7.76L84.45 7.76Q84.35 7.76 84.14 7.76L84.14 7.76L84.14 7.76Q83.94 7.76 83.83 7.76L83.83 7.76L83.83 7.76Q83.73 7.76 83.53 7.77L83.53 7.77L83.53 7.77Q83.34 7.77 83.23 7.79L83.23 7.79L83.23 7.79Q83.13 7.81 82.97 7.84L82.97 7.84L82.97 7.84Q82.82 7.87 82.73 7.92L82.73 7.92L82.73 7.92Q82.65 7.96 82.56 8.03L82.56 8.03L82.56 8.03Q82.48 8.09 82.44 8.19L82.44 8.19L82.44 8.19Q82.40 8.29 82.40 8.40L82.40 8.40L82.40 8.40Q82.40 8.78 82.37 9.57L82.37 9.57L82.37 9.57Q82.33 10.36 82.33 10.79L82.33 10.79L82.33 10.79Q82.33 12.07 82.41 13.05L82.41 13.05L82.41 13.05Q82.41 13.41 82.81 13.55L82.81 13.55L82.81 13.55Q83.21 13.68 84.15 13.68ZM84.14 14.62L84.14 14.62L84.14 14.62Q83.38 14.62 82.87 14.56L82.87 14.56L82.87 14.56Q82.37 14.50 82.00 14.29L82.00 14.29L82.00 14.29Q81.63 14.08 81.44 13.85L81.44 13.85L81.44 13.85Q81.25 13.61 81.14 13.10L81.14 13.10L81.14 13.10Q81.03 12.59 81.01 12.09L81.01 12.09L81.01 12.09Q80.99 11.59 80.99 10.71L80.99 10.71L80.99 10.71Q80.99 10.04 81.00 9.60L81.00 9.60L81.00 9.60Q81.02 9.15 81.08 8.73L81.08 8.73L81.08 8.73Q81.14 8.30 81.23 8.04L81.23 8.04L81.23 8.04Q81.33 7.77 81.50 7.54L81.50 7.54L81.50 7.54Q81.68 7.30 81.89 7.18L81.89 7.18L81.89 7.18Q82.11 7.05 82.45 6.96L82.45 6.96L82.45 6.96Q82.79 6.87 83.19 6.84L83.19 6.84L83.19 6.84Q83.59 6.81 84.14 6.81L84.14 6.81L84.14 6.81Q84.70 6.81 85.10 6.84L85.10 6.84L85.10 6.84Q85.50 6.87 85.84 6.96L85.84 6.96L85.84 6.96Q86.17 7.05 86.39 7.18L86.39 7.18L86.39 7.18Q86.61 7.30 86.79 7.54L86.79 7.54L86.79 7.54Q86.96 7.77 87.05 8.04L87.05 8.04L87.05 8.04Q87.14 8.30 87.21 8.73L87.21 8.73L87.21 8.73Q87.27 9.15 87.28 9.60L87.28 9.60L87.28 9.60Q87.30 10.04 87.30 10.71L87.30 10.71L87.30 10.71Q87.30 11.59 87.28 12.09L87.28 12.09L87.28 12.09Q87.25 12.59 87.14 13.10L87.14 13.10L87.14 13.10Q87.04 13.61 86.84 13.85L86.84 13.85L86.84 13.85Q86.65 14.09 86.28 14.29L86.28 14.29L86.28 14.29Q85.91 14.50 85.41 14.56L85.41 14.56L85.41 14.56Q84.90 14.62 84.14 14.62ZM95.13 10.36L95.13 14.52L93.78 14.52L93.78 9.98L93.78 9.98Q93.78 9.54 93.78 9.28L93.78 9.28L93.78 9.28Q93.78 9.02 93.75 8.75L93.75 8.75L93.75 8.75Q93.73 8.48 93.70 8.35L93.70 8.35L93.70 8.35Q93.67 8.22 93.60 8.08L93.60 8.08L93.60 8.08Q93.53 7.95 93.45 7.90L93.45 7.90L93.45 7.90Q93.38 7.85 93.24 7.81L93.24 7.81L93.24 7.81Q93.09 7.77 92.95 7.76L92.95 7.76L92.95 7.76Q92.80 7.75 92.57 7.75L92.57 7.75L92.57 7.75Q92.05 7.75 91.68 7.81L91.68 7.81L91.68 7.81Q91.31 7.87 91.08 7.97L91.08 7.97L91.08 7.97Q90.85 8.07 90.72 8.26L90.72 8.26L90.72 8.26Q90.60 8.44 90.55 8.66L90.55 8.66L90.55 8.66Q90.50 8.87 90.50 9.19L90.50 9.19L90.50 9.19Q90.50 9.37 90.52 9.81L90.52 9.81L90.52 9.81Q90.54 10.25 90.54 10.52L90.54 10.52L90.54 14.52L89.20 14.52L89.20 7.02L90.43 7.02L90.56 7.86L90.56 7.86Q90.73 7.30 91.34 7.05L91.34 7.05L91.34 7.05Q91.95 6.81 92.79 6.81L92.79 6.81L92.79 6.81Q93.19 6.81 93.50 6.86L93.50 6.86L93.50 6.86Q93.80 6.90 94.04 7.02L94.04 7.02L94.04 7.02Q94.28 7.13 94.46 7.27L94.46 7.27L94.46 7.27Q94.63 7.42 94.75 7.65L94.75 7.65L94.75 7.65Q94.87 7.89 94.94 8.13L94.94 8.13L94.94 8.13Q95.02 8.38 95.06 8.75L95.06 8.75L95.06 8.75Q95.10 9.12 95.12 9.48L95.12 9.48L95.12 9.48Q95.13 9.85 95.13 10.36L95.13 10.36Z"></path></g><defs data-v-423bf9ae=""><linearGradient data-v-423bf9ae="" gradientTransform="rotate(25)" id="41fd92af-1c00-47f7-84e0-0e97aeb4782c" x1="0%" y1="0%" x2="100%" y2="0%"><stop data-v-423bf9ae="" offset="0%" style="stop-color: rgb(218, 110, 42); stop-opacity: 1;"></stop><stop data-v-423bf9ae="" offset="100%" style="stop-color: rgb(227, 158, 90); stop-opacity: 1;"></stop></linearGradient></defs><g data-v-423bf9ae="" id="180b072d-7765-4f38-807f-eb7bad6e3806" transform="matrix(1.1111110263400608,0,0,1.1111110263400608,166.2590219709157,0.44445292154915705)" stroke="none" fill="url(#41fd92af-1c00-47f7-84e0-0e97aeb4782c)"><switch><g><path d="M18.842 50.52c.005.202.048.394.129.579.026.062.046.122.082.179.125.209.284.4.508.536l.012.004c.004.002.005.007.009.009l29.756 17.435c.023.014.05.007.075.021.214.11.45.192.711.192.261 0 .497-.082.713-.196.027-.011.058-.007.084-.021L80.148 51.82c.229-.136.389-.331.519-.544.035-.059.057-.114.082-.177.082-.186.125-.377.132-.579 0-.043.028-.078.025-.119 0-.019-.015-.032-.019-.051a1.501 1.501 0 0 0-.2-.663L51.459.758c-.011-.02-.03-.028-.043-.047-.035-.056-.078-.1-.121-.15a1.774 1.774 0 0 0-.172-.175c-.048-.039-.091-.082-.142-.114-.02-.014-.03-.034-.05-.046-.034-.021-.071-.021-.105-.038A1.463 1.463 0 0 0 50.615.1c-.062-.022-.124-.044-.191-.057a1.088 1.088 0 0 0-.196-.021C50.192.018 50.16 0 50.124 0s-.064.018-.1.02c-.064.006-.124.007-.186.02-.071.013-.136.036-.206.059a1.421 1.421 0 0 0-.209.088c-.031.017-.066.017-.097.034-.018.011-.029.03-.046.041-.055.036-.102.08-.154.125a1.623 1.623 0 0 0-.172.17c-.039.048-.082.091-.114.142-.015.02-.034.03-.047.05l-29.755 48.93c-.129.21-.186.439-.206.672-.002.02-.016.033-.018.054-.001.038.026.074.028.115zM51.68 7.191l23.767 39.791L51.68 36.08V7.191zm-3.111 28.88L24.308 47.002 48.569 7.107v28.964zm0 3.414v25.718L23.754 50.665l24.815-11.18zm3.111 25.693V39.501l24.332 11.164L51.68 65.178z"></path><path d="M80.773 55.836c-.493-.54-1.305-.647-1.935-.286L50.124 72.503 21.421 55.55a1.571 1.571 0 0 0-1.938.286 1.558 1.558 0 0 0-.124 1.955l29.495 41.555c.023.032.061.042.084.071.061.074.122.139.193.2.034.028.054.071.091.096.029.021.066.012.097.032.05.029.093.071.148.098.198.096.417.157.651.157h.01c.234 0 .452-.062.651-.157.055-.026.098-.068.148-.098.03-.021.067-.011.097-.032.037-.024.057-.067.091-.096.071-.062.133-.126.192-.2.023-.029.062-.039.084-.071l29.506-41.555a1.554 1.554 0 0 0-.124-1.955zM48.569 75.202v18.362L26.123 61.942l22.446 13.26zm3.111 18.362V75.202l22.455-13.26L51.68 93.564z"></path></g></switch></g><!----></svg>